<?xml version="1.0" encoding="UTF-8"?>
<!DOCTYPE svg PUBLIC "-//W3C//DTD SVG 1.1//EN" "http://www.w3.org/Graphics/SVG/1.1/DTD/svg11.dtd">
<!-- Creator: CorelDRAW X7 -->
<svg xmlns="http://www.w3.org/2000/svg" xml:space="preserve" width="7.67331in" height="1.85332in" version="1.1" style="shape-rendering:geometricPrecision; text-rendering:geometricPrecision; image-rendering:optimizeQuality; fill-rule:evenodd; clip-rule:evenodd"
viewBox="0 0 7673 1853"
 xmlns:xlink="http://www.w3.org/1999/xlink">
 <defs>
  <style type="text/css">
   <![CDATA[
    .str1 {stroke:#FF6600;stroke-width:27.7756}
    .str0 {stroke:black;stroke-width:41.6654;stroke-linecap:round}
    .fil1 {fill:none}
    .fil12 {fill:#65B97C}
    .fil2 {fill:#336666}
    .fil14 {fill:#663300}
    .fil0 {fill:#98CCBF}
    .fil6 {fill:#999999}
    .fil5 {fill:#E6E6E6}
    .fil16 {fill:#009933;fill-rule:nonzero}
    .fil15 {fill:#663300}
    .fil7 {fill:#999999}
    .fil9 {fill:url(#id9)}
    .fil8 {fill:url(#id10)}
    .fil3 {fill:url(#id11)}
    .fil13 {fill:url(#id12)}
    .fil10 {fill:url(#id13)}
    .fil11 {fill:url(#id14)}
    .fil17 {fill:url(#id15)}
    .fil4 {fill:url(#id16)}
   ]]>
  </style>
     <clipPath id="id0">
      <path d="M237 1385l1955 0 -259 360 -1956 0 260 -360z"/>
     </clipPath>
    <mask id="id1">
  <linearGradient id="id2" gradientUnits="userSpaceOnUse" x1="1189.78" y1="1101.99" x2="755.496" y2="781.559">
   <stop offset="0" style="stop-opacity:0.4; stop-color:white"/>
   <stop offset="1" style="stop-opacity:0; stop-color:white"/>
  </linearGradient>
     <rect style="fill:url(#id2)" x="138" y="179" width="1669" height="1526"/>
    </mask>
    <clipPath id="id3">
     <path d="M3246 1477l1956 0 -270 268 -1956 0 270 -268z"/>
    </clipPath>
   <mask id="id4">
  <linearGradient id="id5" gradientUnits="userSpaceOnUse" x1="4182.28" y1="1121.41" x2="3734.58" y2="791.079">
   <stop offset="0" style="stop-opacity:0.4; stop-color:white"/>
   <stop offset="1" style="stop-opacity:0; stop-color:white"/>
  </linearGradient>
    <rect style="fill:url(#id5)" x="3098" y="170" width="1720" height="1573"/>
   </mask>
      <clipPath id="id6">
       <path d="M5922 1598l1826 0 -58 147 -1825 0 57 -147z"/>
      </clipPath>
    <mask id="id7">
  <linearGradient id="id8" gradientUnits="userSpaceOnUse" x1="7003.21" y1="1124.01" x2="6581.92" y2="813.161">
   <stop offset="0" style="stop-opacity:0.4; stop-color:white"/>
   <stop offset="1" style="stop-opacity:0; stop-color:white"/>
  </linearGradient>
     <rect style="fill:url(#id8)" x="6000" y="206" width="1585" height="1526"/>
    </mask>
  <linearGradient id="id9" gradientUnits="userSpaceOnUse" x1="4223.48" y1="701.846" x2="4044.39" y2="664.642">
   <stop offset="0" style="stop-opacity:1; stop-color:#65BCFF"/>
   <stop offset="0.521569" style="stop-opacity:1; stop-color:#B1DDFF"/>
   <stop offset="1" style="stop-opacity:1; stop-color:#FEFEFE"/>
  </linearGradient>
  <linearGradient id="id10" gradientUnits="userSpaceOnUse" xlink:href="#id9" x1="4160.92" y1="935.071" x2="3697.99" y2="838.898">
  </linearGradient>
  <linearGradient id="id11" gradientUnits="userSpaceOnUse" x1="815.031" y1="1038.13" x2="675.717" y2="767.665">
   <stop offset="0" style="stop-opacity:1; stop-color:#FEB100"/>
   <stop offset="1" style="stop-opacity:1; stop-color:#FFF35D"/>
  </linearGradient>
  <linearGradient id="id12" gradientUnits="userSpaceOnUse" x1="6710.28" y1="1214.5" x2="6538.17" y2="1020.33">
   <stop offset="0" style="stop-opacity:1; stop-color:#663300"/>
   <stop offset="0.588235" style="stop-opacity:1; stop-color:#7F4C19"/>
   <stop offset="1" style="stop-opacity:1; stop-color:#996633"/>
  </linearGradient>
  <linearGradient id="id13" gradientUnits="userSpaceOnUse" xlink:href="#id9" x1="3636.11" y1="1062.53" x2="3533.92" y2="1039.5">
  </linearGradient>
  <linearGradient id="id14" gradientUnits="userSpaceOnUse" x1="4039.87" y1="1039.37" x2="3876.98" y2="873.114">
   <stop offset="0" style="stop-opacity:1; stop-color:#C4C4C4"/>
   <stop offset="1" style="stop-opacity:1; stop-color:white"/>
  </linearGradient>
  <linearGradient id="id15" gradientUnits="userSpaceOnUse" xlink:href="#id14" x1="6869.52" y1="1047.13" x2="6715.61" y2="890.039">
  </linearGradient>
  <linearGradient id="id16" gradientUnits="userSpaceOnUse" xlink:href="#id14" x1="1051.64" y1="1022.41" x2="893.634" y2="861.138">
  </linearGradient>
 </defs>
 <g id="Layer_x0020_1">
  <metadata id="CorelCorpID_0Corel-Layer"/>
  <g id="_675229763392">
   <g>
    <g style="clip-path:url(#id0)">
     <image x="-23" y="1385" width="2214" height="360" xlink:href="icons-cottonwood-color_Images\icons-cottonwood-color_ImgID1.png"/>
    </g>
   </g>
   <g>
    <ellipse class="fil0" cx="972" cy="935" rx="860" ry="786"/>
    <line class="fil1 str0" x1="731" y1="430" x2="725" y2= "654" />
    <line class="fil1 str0" x1="264" y1="897" x2="488" y2= "904" />
    <line class="fil1 str0" x1="416" y1="1208" x2="580" y2= "1054" />
    <line class="fil1 str0" x1="434" y1="562" x2="588" y2= "725" />
    <line class="fil1 str0" x1="721" y1="1123" x2="714" y2= "1347" />
    <g>
     <polygon class="fil2" points="945,719 1457,1176 1466,1185 1475,1194 1483,1203 1491,1213 1499,1223 1506,1234 1512,1245 1518,1256 1524,1267 1529,1279 1533,1291 1536,1304 1539,1316 1542,1329 1544,1342 1545,1355 1545,1368 1545,1382 1544,1395 1542,1408 1539,1421 1536,1433 1533,1446 1529,1458 1524,1469 1518,1481 1512,1492 1506,1503 1499,1513 1491,1524 1483,1533 1475,1543 1466,1552 1457,1560 1447,1569 1437,1576 1426,1583 1415,1590 1404,1596 1392,1602 1380,1607 1368,1612 1355,1616 1343,1620 1330,1623 1316,1625 1303,1626 1289,1627 1275,1628 1261,1627 1248,1626 1234,1625 1221,1623 1208,1620 1195,1616 1182,1612 1170,1607 1158,1602 1147,1596 1135,1590 1124,1583 1114,1576 1104,1569 1094,1560 582,1103 592,1111 602,1119 612,1126 623,1133 635,1139 646,1145 658,1150 670,1155 683,1159 696,1162 709,1165 722,1168 736,1169 749,1170 763,1171 777,1170 791,1169 804,1168 818,1165 831,1162 843,1159 856,1155 868,1150 880,1145 892,1139 903,1133 914,1126 925,1119 935,1111 945,1103 954,1095 963,1086 971,1076 979,1066 987,1056 994,1046 1000,1035 1006,1024 1012,1012 1017,1000 1021,988 1024,976 1027,964 1030,951 1032,938 1033,925 1033,911 1033,898 1032,885 1030,872 1027,859 1024,846 1021,834 1017,822 1012,810 1006,799 1000,788 994,777 987,766 979,756 971,746 963,737 954,728 "/>
    </g>
    <path class="fil2" d="M763 652c149,0 270,116 270,259 0,144 -121,260 -270,260 -149,0 -270,-116 -270,-260 0,-143 121,-259 270,-259z"/>
    <line class="fil1 str0" x1="957" y1="907" x2="1182" y2= "914" />
    <line class="fil1 str0" x1="914" y1="724" x2="1077" y2= "571" />
    <line class="fil1 str0" x1="918" y1="1059" x2="1071" y2= "1223" />
    <ellipse class="fil3 str1" cx="745" cy="903" rx="252" ry="242"/>
   </g>
   <path class="fil4" style="mask:url(#id1)" d="M973 179c460,0 834,341 834,763 0,421 -374,763 -834,763 -461,0 -835,-342 -835,-763 0,-422 374,-763 835,-763z"/>
  </g>
  <g id="_675229762272">
   <g style="clip-path:url(#id3)">
    <image x="2976" y="1477" width="2226" height="269" xlink:href="icons-cottonwood-color_Images\icons-cottonwood-color_ImgID2.png"/>
   </g>
  </g>
  <g id="_675229765504">
   <ellipse class="fil5" cx="3972" cy="941" rx="860" ry="787"/>
   <g>
    <polygon class="fil6" points="4092,959 4486,1265 4493,1272 4501,1280 4508,1287 4515,1295 4521,1303 4527,1312 4532,1321 4537,1330 4542,1339 4546,1348 4550,1358 4553,1368 4555,1378 4557,1388 4559,1399 4560,1409 4560,1420 4560,1431 4559,1442 4557,1452 4555,1462 4553,1472 4550,1482 4546,1492 4542,1502 4537,1511 4532,1520 4527,1529 4521,1537 4515,1545 4508,1553 4501,1561 4493,1568 4486,1575 4477,1582 4469,1588 4460,1594 4451,1599 4441,1604 4431,1609 4421,1613 4411,1617 4400,1620 4390,1623 4379,1625 4368,1627 4356,1628 4345,1629 4333,1629 4321,1629 4310,1628 4299,1627 4287,1625 4276,1623 4266,1620 4255,1617 4245,1613 4235,1609 4225,1604 4215,1599 4206,1594 4197,1588 4189,1582 3796,1275 3804,1281 3813,1287 3822,1292 3832,1297 3842,1302 3852,1306 3862,1310 3872,1313 3883,1316 3894,1318 3905,1320 3917,1322 3928,1322 3940,1323 3952,1322 3963,1322 3974,1320 3986,1318 3997,1316 4007,1313 4018,1310 4028,1306 4038,1302 4048,1297 4058,1292 4067,1287 4076,1281 4084,1275 4092,1268 4100,1261 4108,1254 4115,1247 4122,1239 4128,1230 4134,1222 4139,1213 4144,1204 4149,1195 4153,1185 4157,1176 4160,1166 4162,1156 4164,1145 4166,1135 4166,1124 4167,1114 4166,1103 4166,1092 4164,1082 4162,1071 4160,1061 4157,1051 4153,1042 4149,1032 4144,1023 4139,1014 4134,1005 4128,997 4122,989 4115,981 4108,973 4100,966 "/>
   </g>
   <path class="fil7" d="M3940 905c125,0 227,93 227,209 0,115 -102,209 -227,209 -125,0 -227,-94 -227,-209 0,-116 102,-209 227,-209z"/>
   <path class="fil8" d="M3677 1068c-6,131 19,215 137,271 74,34 201,13 262,-14 61,-27 73,-41 103,-136 11,-36 0,-141 -21,-173 -159,-241 -210,-124 -243,-532 -2,-21 -26,-62 -31,-67 -2,2 27,122 20,142 -11,36 -38,152 -55,185 -72,141 -166,179 -172,324z"/>
   <path class="fil9" d="M4036 753c-2,51 7,84 53,105 29,13 78,5 102,-5 23,-11 28,-16 39,-53 5,-14 1,-55 -8,-67 -61,-93 -81,-48 -94,-206 0,-8 -10,-23 -12,-25 0,0 11,46 8,54 -4,14 -15,59 -21,72 -28,55 -64,69 -67,125z"/>
   <path class="fil10" d="M3528 1092c-2,30 4,49 31,61 17,8 45,3 59,-3 14,-6 17,-9 23,-31 3,-8 1,-32 -4,-39 -36,-54 -48,-28 -55,-120 -1,-5 -6,-14 -7,-15 -1,0 6,27 4,32 -2,8 -8,34 -12,42 -16,32 -38,40 -39,73z"/>
   <path class="fil1" d="M4657 154c-4,22 -8,43 -12,65l-2 9"/>
  </g>
  <path class="fil11" style="mask:url(#id4)" d="M3958 170c475,0 861,352 861,786 0,435 -386,787 -861,787 -475,0 -860,-352 -860,-787 0,-434 385,-786 860,-786z"/>
  <g id="_675234988656">
   <g>
    <g>
     <g style="clip-path:url(#id6)">
      <image x="5865" y="1598" width="1883" height="147" xlink:href="icons-cottonwood-color_Images\icons-cottonwood-color_ImgID3.png"/>
     </g>
    </g>
    <ellipse class="fil12" cx="6781" cy="954" rx="795" ry="782"/>
    <path class="fil13" d="M6460 957l28 298c0,0 37,27 143,27 106,0 139,-41 139,-41l18 -288c0,0 -53,23 -143,32 -141,2 -185,-28 -185,-28z"/>
    <g>
     <polygon class="fil14" points="6492,1237 6941,1624 6941,1624 6941,1624 6942,1624 6943,1625 6944,1625 6945,1626 6946,1627 6948,1627 6950,1628 6952,1629 6954,1630 6957,1631 6960,1633 6963,1634 6966,1635 6970,1636 6974,1637 6978,1638 6983,1640 6988,1641 6993,1642 6999,1643 7005,1644 7011,1645 7017,1646 7024,1646 7031,1647 7039,1648 7047,1648 7055,1648 7064,1649 7073,1649 7082,1649 7090,1648 7098,1648 7106,1647 7114,1646 7121,1645 7127,1644 7134,1643 7140,1641 7145,1640 7151,1638 7156,1637 7161,1635 7165,1633 7169,1632 7173,1630 7177,1628 7180,1626 7183,1625 7185,1623 7188,1621 7190,1620 7192,1618 7194,1617 7195,1616 7197,1614 7198,1613 7199,1613 7199,1612 7200,1611 7200,1611 7200,1611 7217,1346 6768,959 6751,1224 6751,1224 6751,1225 6750,1225 6750,1226 6749,1227 6748,1228 6747,1229 6745,1230 6743,1231 6741,1233 6739,1234 6737,1236 6734,1238 6731,1239 6728,1241 6724,1243 6720,1245 6716,1247 6712,1248 6707,1250 6702,1252 6697,1253 6691,1255 6685,1256 6679,1257 6672,1258 6665,1259 6657,1260 6649,1261 6641,1262 6633,1262 6624,1262 6615,1262 6606,1262 6598,1261 6590,1261 6583,1260 6575,1260 6568,1259 6562,1258 6556,1257 6550,1256 6544,1255 6539,1254 6534,1253 6530,1252 6525,1251 6521,1249 6518,1248 6514,1247 6511,1246 6508,1245 6505,1244 6503,1243 6501,1242 6499,1241 6497,1240 6496,1239 6495,1238 6494,1238 6493,1237 6492,1237 6492,1237 "/>
    </g>
    <path class="fil15" d="M6467 963l25 274c0,0 34,25 132,25 97,0 127,-38 127,-38l17 -265c0,0 -49,21 -131,29 -130,3 -170,-25 -170,-25z"/>
    <g>
     <g>
      <path class="fil16" d="M6612 756c0,1 0,1 0,2 0,0 0,1 0,1 0,20 10,210 17,210 8,0 13,-190 13,-211 0,0 0,0 -1,-1 0,0 1,-1 1,-1 -1,-21 -11,-212 -18,-212 -8,0 -13,192 -12,212z"/>
     </g>
     <path class="fil1" d="M6629 969c0,-141 -5,-281 -5,-425"/>
     <g>
      <path class="fil16" d="M6716 712c0,0 0,0 0,0 -1,0 -1,0 -1,0 -4,0 -7,1 -11,2 -17,5 -32,10 -46,22 -6,6 -10,11 -13,19 -1,4 -3,21 2,22 2,-1 7,-12 11,-16 3,-4 7,-7 12,-9 12,-6 25,-8 39,-10 3,0 7,0 10,-1 1,0 1,0 1,0 0,0 0,0 0,0 16,-3 88,-13 93,-23 -1,-8 -86,-8 -97,-6z"/>
     </g>
     <path class="fil1" d="M6647 777c-1,-59 105,-51 166,-60"/>
     <g>
      <path class="fil16" d="M6539 648c0,0 0,0 0,0 0,0 0,0 0,1 1,0 1,0 1,0 8,8 15,12 25,16 11,4 20,5 32,4 5,1 38,-10 36,-16 -1,-2 -29,-2 -36,-3 -8,-2 -14,-4 -21,-8 -6,-4 -9,-7 -14,-13 0,0 0,0 0,0 0,0 0,0 0,-1 0,0 -1,0 -1,0 -4,-5 -7,-8 -11,-14 -7,-12 -12,-24 -18,-37 -3,-5 -5,-10 -8,-15 -2,-2 -3,-3 -5,-4 -1,-1 -2,-1 -3,-1 -1,-1 -2,-1 -3,0 0,1 1,2 1,3 0,0 0,2 0,2 0,1 1,3 1,4 0,5 1,10 1,15 2,16 5,30 11,45 1,5 8,17 12,22z"/>
     </g>
     <path class="fil1" d="M6633 654c-111,34 -102,-92 -120,-96"/>
     <g>
      <path class="fil16" d="M6502 821c0,0 1,0 1,0 0,0 0,0 0,0 0,1 1,1 1,1 15,11 28,16 45,19 7,3 61,2 61,-5 -1,-3 -46,-13 -55,-17 -13,-5 -21,-10 -32,-20 0,0 0,0 -1,-1 0,0 0,0 0,0 0,0 0,0 0,0 -20,-15 -64,-69 -73,-71 -2,15 39,80 53,94z"/>
     </g>
     <path class="fil1" d="M6610 836c-96,0 -107,-31 -161,-109"/>
     <g>
      <path class="fil16" d="M6527 713c0,0 0,1 1,1 -1,0 -1,0 -1,0 5,20 1,72 5,77 15,-5 27,-64 25,-81 0,0 0,-1 0,-1 0,0 0,0 0,0 0,-1 0,-2 0,-2 -2,-8 -5,-14 -9,-21 -4,-6 -8,-11 -15,-15 -7,-5 -13,-7 -21,-9 -4,-1 -26,0 -26,5 1,3 17,9 21,11 5,3 8,5 12,10 3,3 4,6 6,10 1,2 2,11 2,14 0,0 0,1 0,1z"/>
     </g>
     <path class="fil1" d="M6532 791c15,-53 27,-124 -46,-124"/>
     <g>
      <path class="fil16" d="M6671 672c0,0 0,0 0,0 0,0 -1,0 -1,1 -1,2 -1,6 -2,8 0,7 0,13 2,20 3,7 7,12 13,17 2,3 21,13 24,9 1,-4 -8,-16 -10,-21 -2,-4 -3,-7 -3,-11 1,-3 1,-5 2,-7 0,-1 2,-3 2,-4 0,0 0,0 0,0 0,0 0,-1 0,-1 1,0 2,-4 2,-4 0,-2 10,-22 12,-25 2,-5 3,-9 4,-15 1,-2 0,-13 -4,-13 -2,1 -7,7 -8,8 -1,1 -8,8 -8,9 -7,5 -16,15 -21,22 -1,2 -3,5 -4,7z"/>
     </g>
     <path class="fil1" d="M6707 727c-61,-41 7,-72 5,-101"/>
     <g>
      <path class="fil16" d="M6669 523c0,0 -1,0 -1,0 0,1 0,1 0,1 -12,13 -25,29 -36,43 -5,6 -10,12 -14,19 -1,2 -3,5 -3,7 -1,2 -1,2 -1,3 0,1 0,2 1,3 1,0 1,0 2,-1 1,0 2,-1 2,-1 3,-1 5,-2 7,-3 7,-4 13,-9 19,-14 14,-10 32,-23 45,-35 0,-1 0,-1 0,-1 0,0 0,0 0,0 2,-2 3,-4 4,-5 12,-15 25,-31 29,-49 0,-4 1,-7 0,-11 0,-2 -2,-4 -2,-6 -1,-1 -3,-3 -4,-4 -4,-2 -7,-3 -11,-3 -1,-1 -13,2 -13,5 1,2 9,4 11,5 1,1 3,2 3,3 1,1 0,1 0,1 0,0 0,0 0,1 0,0 -2,3 -2,3 -9,13 -21,24 -32,35 -1,1 -3,3 -4,4z"/>
     </g>
     <path class="fil1" d="M6615 599c2,-11 155,-133 78,-128"/>
     <g>
      <path class="fil16" d="M6576 537c0,0 1,0 1,0 0,0 0,0 0,0 6,3 33,17 38,16 7,-10 -13,-33 -20,-40 0,0 0,0 0,0 0,0 -1,0 -1,0 -1,-1 -3,-2 -3,-2 -5,-3 -10,-5 -14,-7 -5,-3 -11,-10 -13,-10 -8,0 -5,16 -3,21 3,7 7,12 12,18 0,0 3,3 3,4z"/>
     </g>
     <path class="fil1" d="M6615 553c-19,-29 -53,-34 -51,-59"/>
    </g>
   </g>
   <path class="fil17" style="mask:url(#id7)" d="M6793 206c437,0 792,341 792,763 0,421 -355,762 -792,762 -438,0 -793,-341 -793,-762 0,-422 355,-763 793,-763z"/>
  </g>
 </g>
</svg>
