<svg version="1.1" id="Layer_1" xmlns="http://www.w3.org/2000/svg" xmlns:xlink="http://www.w3.org/1999/xlink" x="0px" y="0px"
	 viewBox="0 0 85.001 23.499" style="enable-background:new 0 0 85.001 23.499;"
	 xml:space="preserve">
<defs>	 
<style type="text/css">

	.st1{

		stroke-width:0.1px;
		stroke-miterlimit:10;
		stroke:white;
		fill:black;

	
	}
	.st1{
		stroke-dasharray:180;
		stroke-dashoffset:0;
		animation:dash 5s linear;
		-webkit-animation:dash 5s linear forwards ;
		-moz-animation:dash 5s linear forwards ;
		-o-animation:dash 5s linear forwards ;
	}
		@-webkit-keyframes dash{
			from{
				stroke-dashoffset:180;
				fill:black;

			}
			to{
				stroke-dashoffset:0;
				fill:white;
			}
		}
		.st0{
		fill:white;
		animation:glow .5s forwards;
		-webkit-animation:glow .5s forwards;
		-webkit-animation-delay:5.1s;
		}
		@-webkit-keyframes glow{
		from{
		fill:white;
		}
		to{
		fill:rgba(10,220,5,1);
		}
		}



</style>
</defs>
<path class="st1" d="M23.703,9.984c0,1.78-1.273,2.557-2.475,2.557c-1.346,0-2.383-0.955-2.383-2.476
	c0-1.611,1.089-2.556,2.465-2.556C22.737,7.509,23.703,8.513,23.703,9.984z M19.759,10.034c0,1.056,0.626,1.851,1.51,1.851
	c0.863,0,1.51-0.785,1.51-1.87c0-0.815-0.421-1.849-1.489-1.849C20.221,8.166,19.759,9.12,19.759,10.034z"/>
<path class="st1" d="M25.93,6.235v1.382h1.294v0.667H25.93v2.595c0,0.597,0.175,0.935,0.677,0.935c0.237,0,0.412-0.029,0.524-0.059
	l0.041,0.655c-0.174,0.07-0.451,0.12-0.801,0.12c-0.421,0-0.76-0.13-0.975-0.368c-0.257-0.259-0.35-0.687-0.35-1.253V8.285h-0.771
	V7.618h0.771V6.464L25.93,6.235z"/>
<path class="st1" d="M29.329,6.235v1.382h1.294v0.667h-1.294v2.595c0,0.597,0.174,0.935,0.678,0.935
	c0.236,0,0.411-0.029,0.524-0.059l0.041,0.655c-0.175,0.07-0.452,0.12-0.801,0.12c-0.421,0-0.76-0.13-0.976-0.368
	c-0.256-0.259-0.349-0.687-0.349-1.253V8.285h-0.771V7.618h0.771V6.464L29.329,6.235z"/>
<path class="st1" d="M36.077,9.984c0,1.78-1.274,2.557-2.475,2.557c-1.346,0-2.384-0.955-2.384-2.476
	c0-1.611,1.089-2.556,2.465-2.556C35.111,7.509,36.077,8.513,36.077,9.984z M32.132,10.034c0,1.056,0.626,1.851,1.51,1.851
	c0.863,0,1.51-0.785,1.51-1.87c0-0.815-0.421-1.849-1.489-1.849C32.594,8.166,32.132,9.12,32.132,10.034z"/>
<path class="st1" d="M37.215,8.92c0-0.497-0.011-0.904-0.042-1.303h0.801l0.051,0.795h0.021c0.248-0.457,0.822-0.903,1.644-0.903
	c0.687,0,1.756,0.396,1.756,2.048v2.874h-0.904V9.657c0-0.775-0.297-1.422-1.15-1.422c-0.597,0-1.059,0.407-1.212,0.895
	c-0.041,0.109-0.062,0.259-0.062,0.408v2.894h-0.904V8.92z"/>
<path class="st1" d="M43.14,7.618l0.658,2.447c0.144,0.536,0.276,1.034,0.37,1.53h0.03c0.114-0.487,0.278-1.004,0.442-1.521
	l0.812-2.457h0.76l0.771,2.406c0.184,0.577,0.329,1.084,0.44,1.571h0.033c0.082-0.487,0.214-0.994,0.379-1.562l0.709-2.416h0.893
	l-1.602,4.813h-0.822l-0.76-2.297c-0.174-0.537-0.318-1.015-0.442-1.581H45.79c-0.124,0.576-0.278,1.073-0.452,1.591l-0.801,2.287
	h-0.822l-1.5-4.813H43.14z"/>
<path class="st1" d="M54.734,9.984c0,1.78-1.273,2.557-2.476,2.557c-1.345,0-2.382-0.955-2.382-2.476
	c0-1.611,1.088-2.556,2.465-2.556C53.769,7.509,54.734,8.513,54.734,9.984z M50.791,10.034c0,1.056,0.625,1.851,1.511,1.851
	c0.862,0,1.509-0.785,1.509-1.87c0-0.815-0.422-1.849-1.489-1.849C51.252,8.166,50.791,9.12,50.791,10.034z"/>
<path class="st1" d="M69.619,3.21v8.222c0,0.604,0.013,1.292,0.049,1.757h-0.985l-0.05-1.182h-0.026
	c-0.337,0.76-1.075,1.335-2.061,1.335c-1.462,0-2.585-1.391-2.585-3.456c-0.013-2.263,1.236-3.654,2.709-3.654
	c0.926,0,1.551,0.492,1.825,1.04h0.025V3.21H69.619z M68.52,9.155c0-0.154-0.014-0.365-0.051-0.52
	c-0.162-0.787-0.762-1.433-1.585-1.433c-1.138,0-1.813,1.123-1.813,2.627c0,1.377,0.599,2.516,1.786,2.516
	c0.737,0,1.411-0.549,1.611-1.476c0.037-0.169,0.051-0.337,0.051-0.534V9.155z"/>
<path class="st1" d="M28.881,16.63c0,2.181-2.219,3.133-4.313,3.133c-2.345,0-4.152-1.172-4.152-3.037
	c0-1.973,1.896-3.131,4.295-3.131C27.2,13.595,28.881,14.827,28.881,16.63z M22.009,16.691c0,1.292,1.091,2.268,2.631,2.268
	c1.503,0,2.631-0.963,2.631-2.292c0-1-0.734-2.267-2.596-2.267C22.813,14.4,22.009,15.571,22.009,16.691z"/>
<path class="st1" d="M30.867,15.326c0-0.608-0.018-1.108-0.072-1.597h1.377l0.072,0.951h0.054c0.483-0.562,1.289-1.085,2.72-1.085
	c1.181,0,2.076,0.488,2.452,1.183h0.036c0.269-0.329,0.609-0.585,0.966-0.767c0.52-0.27,1.092-0.416,1.915-0.416
	c1.146,0,2.846,0.512,2.846,2.56v3.474h-1.539v-3.341c0-1.132-0.61-1.814-1.88-1.814c-0.894,0-1.593,0.451-1.861,0.976
	c-0.071,0.146-0.125,0.34-0.125,0.535v3.645H36.29v-3.534c0-0.938-0.609-1.621-1.808-1.621c-0.984,0-1.701,0.536-1.951,1.072
	c-0.089,0.158-0.125,0.341-0.125,0.523v3.56h-1.539V15.326z"/>
<path class="st1" d="M44.727,15.655c0-0.757-0.041-1.364-0.082-1.926h1.632l0.081,1.012H46.4c0.743-0.718,1.922-1.146,3.553-1.146
	c2.418,0,4.236,1.207,4.236,2.998c0,2.12-2.19,3.17-4.544,3.17c-1.323,0-2.479-0.342-3.079-0.927h-0.042v3.204h-1.797V15.655z
	 M46.523,17.227c0,0.158,0.042,0.306,0.083,0.438c0.33,0.743,1.425,1.255,2.726,1.255c1.923,0,3.038-0.925,3.038-2.277
	c0-1.183-1.054-2.194-2.976-2.194c-1.239,0-2.396,0.523-2.747,1.328c-0.063,0.134-0.125,0.292-0.125,0.438V17.227z"/>
<path class="st1" d="M63.96,13.231c0,5.027-2.338,7.221-4.545,7.221c-2.471,0-4.375-2.698-4.375-6.997c0-4.551,2-7.219,4.525-7.219
	C62.187,6.235,63.96,9.074,63.96,13.231z M56.718,13.372c0,2.978,1.15,5.225,2.771,5.225c1.585,0,2.773-2.22,2.773-5.281
	c0-2.304-0.773-5.224-2.734-5.224C57.566,8.091,56.718,10.789,56.718,13.372z"/>
<g>
	<path class="st1" d="M64.244,19.422c0.335,0.21,0.925,0.433,1.49,0.433c0.822,0,1.208-0.396,1.208-0.894
		c0-0.52-0.321-0.805-1.156-1.103c-1.118-0.382-1.645-0.979-1.645-1.698c0-0.968,0.809-1.761,2.146-1.761
		c0.629,0,1.181,0.175,1.527,0.373l-0.282,0.793c-0.243-0.147-0.693-0.346-1.271-0.346c-0.67,0-1.042,0.371-1.042,0.817
		c0,0.495,0.372,0.719,1.182,1.016c1.079,0.397,1.632,0.918,1.632,1.811c0,1.054-0.849,1.797-2.325,1.797
		c-0.681,0-1.311-0.162-1.748-0.408L64.244,19.422z"/>
	<path class="st1" d="M70.847,12.814v1.723h1.619v0.831h-1.619v3.235c0,0.744,0.219,1.166,0.848,1.166
		c0.295,0,0.514-0.037,0.656-0.076l0.051,0.819c-0.219,0.086-0.564,0.148-1.001,0.148c-0.528,0-0.951-0.162-1.223-0.459
		c-0.321-0.322-0.437-0.854-0.437-1.561v-3.273h-0.963v-0.831h0.963v-1.438L70.847,12.814z"/>
</g>
<g>
	<path class="st1" d="M18.81,21.342c-1.107,0.483-3.323,0.967-6.161,0.967c-6.576,0-11.526-3.626-11.526-10.304
		c0-6.375,4.95-10.696,12.184-10.696c2.908,0,4.742,0.544,5.538,0.906l-0.727,2.146c-1.142-0.483-2.769-0.847-4.707-0.847
		c-5.469,0-9.104,3.052-9.104,8.4c0,4.986,3.289,8.188,8.965,8.188c1.834,0,3.704-0.332,4.916-0.846L18.81,21.342z"/>
</g>
<path class="st0" d="M84.168,19.833c0,1.104-0.896,2-2,2h-5.5c-1.104,0-2-0.896-2-2v-2.666c0-1.105,0.896-2,2-2h5.5
	c1.104,0,2,0.895,2,2V19.833z"/>
</svg>
